<svg id="Unactivated" xmlns="http://www.w3.org/2000/svg" viewBox="0 0 108 108"><defs><style>.cls-1{fill:#c8ccd3;}.cls-2{fill:#20221d;opacity:0.95;}.cls-3{fill:#fff;}</style></defs><title>art_Building</title><circle class="cls-1" cx="53.74" cy="54.47" r="48.06"/><path class="cls-2" d="M78.62,59.19c-8.15-.31-8.27-6.28-4-11.63C79.47,41.4,80.3,33.7,74,27.7,60.47,14.75,35.2,27.86,27.45,41,16.69,59.14,25.85,81.2,47.13,85.34c9.92,1.93,19.82-2,27-8.77C76.74,74.13,87.78,60.43,78.62,59.19Zm-8,9.4c-2.09,2.78-5.78,3.53-8.23,1.68s-2.76-5.59-.67-8.37,5.77-3.54,8.23-1.69S72.71,65.81,70.62,68.59Z"/><ellipse class="cls-3" cx="49.97" cy="76.61" rx="6.56" ry="5.57" transform="translate(-31.74 35.51) rotate(-30.19)"/><ellipse class="cls-3" cx="36.15" cy="65.94" rx="6.56" ry="5.57" transform="matrix(0.86, -0.5, 0.5, 0.86, -28.25, 27.12)"/><ellipse class="cls-3" cx="35.28" cy="50.24" rx="6.72" ry="5.7" transform="translate(-20.48 24.55) rotate(-30.19)"/><ellipse class="cls-3" cx="45.69" cy="35.71" rx="6.7" ry="5.69" transform="translate(-11.76 27.81) rotate(-30.19)"/></svg>