<svg xmlns="http://www.w3.org/2000/svg" viewBox="0 0 108 108"><defs><style>.cls-1{fill:#c8ccd3;}.cls-2{fill:#c3162d;}.cls-3{fill:#fff;}</style></defs><title>CEB</title><g id="Activated"><circle class="cls-1" cx="53.6" cy="53.55" r="48.06"/><polygon class="cls-2" points="26.9 36.67 28.64 36.08 28.64 34.69 26.9 34.09 27.2 31.71 28.89 31.71 29.58 30.37 27.99 28.94 29.28 26.7 30.97 27.45 32.01 26.36 30.97 24.62 32.85 22.89 34.24 24.13 35.63 23.48 35.28 21.6 37.51 20.7 38.31 22.14 39.89 22.14 40.14 20.11 42.87 19.91 42.87 21.84 44.6 22.19 45.3 20.51 47.88 21.2 47.53 23.28 48.72 23.73 50.06 22.59 51.99 24.08 51.25 25.71 51.99 26.85 53.73 26.16 55.17 28.29 53.83 29.63 54.22 31.07 56.16 30.92 56.6 33.45 54.82 33.99 54.82 35.58 56.6 36.03 56.41 38.7 54.42 38.7 54.02 39.84 55.46 41.13 54.27 43.41 52.54 42.67 51.55 43.81 52.59 45.3 50.7 47.13 49.12 45.9 48.02 46.74 48.37 48.57 45.94 49.37 45.2 48.03 43.71 47.93 43.41 49.91 40.74 49.91 40.49 48.23 39 47.98 38.16 49.91 35.78 48.97 36.02 47.03 34.74 46.14 33.35 47.63 31.31 45.9 32.36 44.46 31.56 43.27 29.78 43.86 28.14 41.78 29.78 40.44 29.23 39.1 27.2 39.35 26.9 36.67"/><path class="cls-3" d="M40,35.87s.26,4.56-2.73,6.69a1.29,1.29,0,0,1-1.77,0c-.87-.81-3.76-3.14-3.43-6.51a1.61,1.61,0,0,1,1.53-1.42C35,34.57,38.68,34.71,40,35.87Z"/><path class="cls-3" d="M42.74,36.47s4.57-.07,6.58,3a1.29,1.29,0,0,1-.07,1.76c-.85.84-3.29,3.64-6.65,3.18a1.61,1.61,0,0,1-1.35-1.59C41.24,41.44,41.53,37.73,42.74,36.47Z"/><path class="cls-3" d="M43.48,34.26S43.1,29.71,46,27.49a1.29,1.29,0,0,1,1.76,0c.9.79,3.85,3,3.61,6.42a1.59,1.59,0,0,1-1.49,1.45C48.54,35.42,44.81,35.39,43.48,34.26Z"/><path class="cls-3" d="M40.44,33.36s-4.56,0-6.53-3.1A1.29,1.29,0,0,1,34,28.5c.86-.83,3.34-3.59,6.7-3.08A1.61,1.61,0,0,1,42,27C42,28.41,41.68,32.12,40.44,33.36Z"/><circle class="cls-3" cx="41.72" cy="35.06" r="1.36"/><polygon class="cls-2" points="60.17 42.21 61.28 41.83 61.28 40.94 60.17 40.56 60.36 39.04 61.44 39.04 61.88 38.18 60.87 37.26 61.69 35.84 62.77 36.31 63.43 35.61 62.77 34.5 63.97 33.4 64.86 34.19 65.75 33.77 65.52 32.57 66.95 32 67.46 32.92 68.47 32.92 68.63 31.62 70.37 31.49 70.37 32.73 71.48 32.95 71.93 31.87 73.57 32.32 73.35 33.65 74.11 33.93 74.97 33.2 76.2 34.16 75.73 35.2 76.2 35.93 77.31 35.49 78.23 36.85 77.38 37.7 77.63 38.62 78.87 38.53 79.15 40.15 78.01 40.49 78.01 41.51 79.15 41.79 79.03 43.51 77.76 43.51 77.5 44.23 78.42 45.06 77.66 46.52 76.55 46.04 75.92 46.77 76.58 47.72 75.38 48.89 74.37 48.1 73.67 48.64 73.89 49.81 72.34 50.32 71.86 49.46 70.91 49.4 70.72 50.67 69.01 50.67 68.85 49.59 67.9 49.43 67.36 50.67 65.84 50.07 66 48.83 65.18 48.26 64.29 49.21 62.99 48.1 63.65 47.18 63.15 46.42 62.01 46.8 60.96 45.47 62.01 44.61 61.66 43.76 60.36 43.92 60.17 42.21"/><path class="cls-3" d="M68.66,41.47s.15,2.62-1.57,3.85a.75.75,0,0,1-1,0c-.5-.47-2.17-1.81-2-3.75a.93.93,0,0,1,.89-.82C65.77,40.72,67.91,40.8,68.66,41.47Z"/><path class="cls-3" d="M70.25,41.81s2.63,0,3.79,1.73a.75.75,0,0,1,0,1c-.49.49-1.9,2.1-3.83,1.83a.92.92,0,0,1-.78-.91C69.39,44.67,69.55,42.53,70.25,41.81Z"/><path class="cls-3" d="M70.67,40.54s-.22-2.62,1.47-3.9a.74.74,0,0,1,1,0c.52.45,2.22,1.74,2.08,3.69a.92.92,0,0,1-.86.84C73.58,41.21,71.44,41.19,70.67,40.54Z"/><path class="cls-3" d="M68.93,40s-2.63,0-3.77-1.78a.75.75,0,0,1,.06-1c.49-.47,1.92-2.06,3.85-1.77a.93.93,0,0,1,.77.93C69.83,37.17,69.64,39.31,68.93,40Z"/><circle class="cls-3" cx="69.66" cy="41" r="0.78"/><polygon class="cls-2" points="35.9 71.06 38.17 70.28 38.17 68.46 35.9 67.68 36.29 64.55 38.5 64.55 39.41 62.8 37.33 60.91 39.02 57.98 41.23 58.95 42.6 57.52 41.23 55.24 43.71 52.97 45.53 54.59 47.35 53.75 46.9 51.27 49.83 50.1 50.87 51.99 52.95 51.99 53.27 49.32 56.85 49.06 56.85 51.6 59.13 52.05 60.04 49.84 63.43 50.75 62.97 53.49 64.54 54.07 66.29 52.58 68.83 54.53 67.86 56.68 68.83 58.17 71.11 57.26 73 60.06 71.24 61.82 71.76 63.71 74.3 63.51 74.89 66.83 72.54 67.55 72.54 69.63 74.89 70.22 74.63 73.73 72.02 73.73 71.5 75.23 73.39 76.92 71.83 79.91 69.55 78.94 68.25 80.43 69.61 82.39 67.14 84.8 65.06 83.17 63.62 84.28 64.08 86.68 60.89 87.72 59.91 85.97 57.96 85.84 57.57 88.44 54.06 88.44 53.73 86.23 51.78 85.9 50.67 88.44 47.55 87.2 47.87 84.67 46.18 83.49 44.36 85.45 41.69 83.17 43.06 81.28 42.01 79.72 39.67 80.5 37.52 77.77 39.67 76.01 38.95 74.25 36.29 74.58 35.9 71.06"/><path class="cls-3" d="M53,70.31s.36,6.49-3.89,9.52a1.84,1.84,0,0,1-2.51,0c-1.24-1.16-5.35-4.47-4.88-9.27a2.29,2.29,0,0,1,2.18-2C45.9,68.46,51.19,68.66,53,70.31Z"/><path class="cls-3" d="M57,71.17s6.49-.1,9.35,4.26a1.85,1.85,0,0,1-.09,2.51c-1.21,1.2-4.68,5.17-9.46,4.52a2.3,2.3,0,0,1-1.93-2.26C54.84,78.24,55.24,73,57,71.17Z"/><path class="cls-3" d="M58,68s-.54-6.47,3.63-9.62a1.83,1.83,0,0,1,2.51-.07c1.27,1.12,5.47,4.32,5.14,9.13a2.29,2.29,0,0,1-2.13,2.07C65.21,69.67,59.91,69.62,58,68Z"/><path class="cls-3" d="M53.7,66.74s-6.5,0-9.3-4.4a1.84,1.84,0,0,1,.14-2.51c1.22-1.18,4.75-5.1,9.52-4.38A2.29,2.29,0,0,1,56,57.74C55.93,59.7,55.45,65,53.7,66.74Z"/><circle class="cls-3" cx="55.52" cy="69.15" r="1.93"/></g></svg>