<svg xmlns="http://www.w3.org/2000/svg" xmlns:xlink="http://www.w3.org/1999/xlink" viewBox="0 0 108 108"><defs><style>.cls-1,.cls-5{fill:none;}.cls-2{clip-path:url(#clip-path);}.cls-3{fill:#c8ccd3;}.cls-4{fill:#c3162d;}.cls-5{stroke:#fff;stroke-miterlimit:10;stroke-width:0.82px;}</style><clipPath id="clip-path"><circle class="cls-1" cx="55.36" cy="56.2" r="48.06"/></clipPath></defs><title>communications_Building</title><g id="Activated"><g class="cls-2"><circle class="cls-3" cx="55.36" cy="56.2" r="48.06"/><path class="cls-4" d="M55.91,100.3h30A62.31,62.31,0,0,1,84.2,89.88c-.47-5.88-.35-12.54,2.69-17.79a69,69,0,0,0,4.54-8.21,44,44,0,0,0,2.85-10.26c1-6.89.35-14.35-3.47-20.32-7.65-11.95-23.76-13.24-36.18-9a19.22,19.22,0,0,0-9,5.95c-3,3.81-3.83,8.38-4.94,13a23.31,23.31,0,0,0-.83,7.92,9.79,9.79,0,0,1-1.67,7c-1.36,1.75-5.51,5.2-2.7,7.6.83.7,1.9.59,2.66,1.39a2.69,2.69,0,0,1,.78,1.51c.11.92-.51,1.61-.63,2.47a1.13,1.13,0,0,0,1,1.43c-1.54.73.18,2.45.44,3.53A13.15,13.15,0,0,1,40,78.74a7.6,7.6,0,0,0,1.66,5.06c4,4.23,14-3.68,15.48,4.23.41,2.14-.07,4.65-.36,6.77C56.52,96.64,56.15,98.46,55.91,100.3Z"/><line class="cls-5" x1="35.6" y1="70.99" x2="13.93" y2="63.32"/><line class="cls-5" x1="35.4" y1="73.84" x2="16.97" y2="73.09"/><line class="cls-5" x1="35.95" y1="76.64" x2="20.73" y2="80.15"/><circle class="cls-1" cx="55.36" cy="56.2" r="48.06"/><polygon class="cls-4" points="55.91 100.3 54.06 108.91 87.42 108.91 85.87 100.3 55.91 100.3"/></g></g></svg>