<svg id="Layer_1" data-name="Layer 1" xmlns="http://www.w3.org/2000/svg" xmlns:xlink="http://www.w3.org/1999/xlink" viewBox="0 0 108 108"><defs><style>.cls-1{fill:none;}.cls-2{clip-path:url(#clip-path);}.cls-3{fill:#c8ccd3;}.cls-4{fill:#20221d;opacity:0.95;}.cls-5{fill:#fff;}</style><clipPath id="clip-path"><circle class="cls-1" cx="53.7" cy="54.93" r="48.06"/></clipPath></defs><title>einstein_Bagel</title><g id="Eintsein_Logo" data-name="Eintsein Logo"><g class="cls-2"><circle class="cls-3" cx="53.87" cy="54.93" r="48.06"/></g><path id="bagel" class="cls-4" d="M81.69,27.8c0,.23,0,.46-.07.69a6.66,6.66,0,0,1-13.27-.82,6.77,6.77,0,0,1,.08-.8A6.63,6.63,0,0,1,58.64,21a6.57,6.57,0,0,1,.67-2.86,6.33,6.33,0,0,1,.88-1.36,37.89,37.89,0,0,0-5.36-.39A37.41,37.41,0,1,0,81.69,27.8ZM54.83,63.39a9.65,9.65,0,1,1,9.65-9.65A9.65,9.65,0,0,1,54.83,63.39Z"/><g id="gots"><circle class="cls-5" cx="50.41" cy="69.85" r="0.6"/><circle class="cls-5" cx="45.68" cy="34.34" r="1.21"/><circle class="cls-5" cx="76.88" cy="54.95" r="1.21"/><circle class="cls-5" cx="68.76" cy="70.45" r="0.6"/><circle class="cls-5" cx="42.65" cy="73.6" r="1.21"/><circle class="cls-5" cx="39.75" cy="45.94" r="1.21"/><circle class="cls-5" cx="69.36" cy="49.52" r="1.21"/><circle class="cls-5" cx="57.57" cy="35.55" r="1.21"/><circle class="cls-5" cx="63.28" cy="67.99" r="1.21"/><circle class="cls-5" cx="33.31" cy="53.13" r="1.21"/><circle class="cls-5" cx="54.15" cy="73.6" r="1.21"/><circle class="cls-5" cx="74.46" cy="64.6" r="1.21"/><circle class="cls-5" cx="69.36" cy="40.24" r="1.21"/><circle class="cls-5" cx="43.4" cy="62.74" r="1.21"/><circle class="cls-5" cx="68.76" cy="58.51" r="0.6"/><circle class="cls-5" cx="58.17" cy="69.85" r="0.6"/><circle class="cls-5" cx="60.2" cy="41.45" r="0.6"/><circle class="cls-5" cx="72.04" cy="44.73" r="0.6"/><circle class="cls-5" cx="35.12" cy="65.81" r="0.6"/><circle class="cls-5" cx="40.35" cy="56.9" r="0.6"/><circle class="cls-5" cx="42.65" cy="40.84" r="0.6"/><circle class="cls-5" cx="52.94" cy="39.03" r="0.6"/><circle class="cls-5" cx="29.59" cy="59.11" r="0.6"/><circle class="cls-5" cx="33.91" cy="47.15" r="0.6"/></g></g></svg>