<svg id="Unactivated" xmlns="http://www.w3.org/2000/svg" viewBox="0 0 108 108"><defs><style>.cls-1{fill:#c8ccd3;}.cls-2{fill:#20221d;stroke:#fff;stroke-miterlimit:10;opacity:0.95;}.cls-3{fill:#fff;}</style></defs><title>kingston</title><circle class="cls-1" cx="51.74" cy="56.16" r="48.06"/><rect class="cls-2" x="30.89" y="29.89" width="41.68" height="56.29" rx="5.87" ry="5.87"/><rect class="cls-3" x="33.67" y="33.32" width="36.01" height="7.72" rx="2.53" ry="2.53"/><circle class="cls-3" cx="59.59" cy="47.05" r="2.7"/><circle class="cls-3" cx="67.43" cy="47.05" r="2.7"/><circle class="cls-3" cx="36.06" cy="54.98" r="2.55"/><circle class="cls-3" cx="43.95" cy="54.88" r="2.55"/><circle class="cls-3" cx="51.75" cy="54.88" r="2.55"/><circle class="cls-3" cx="59.59" cy="54.88" r="2.55"/><circle class="cls-3" cx="67.43" cy="54.98" r="2.55"/><circle class="cls-3" cx="36.07" cy="62.84" r="2.55"/><circle class="cls-3" cx="43.95" cy="62.75" r="2.55"/><circle class="cls-3" cx="51.75" cy="62.75" r="2.55"/><circle class="cls-3" cx="59.59" cy="62.75" r="2.55"/><circle class="cls-3" cx="67.43" cy="62.84" r="2.55"/><circle class="cls-3" cx="36.07" cy="70.8" r="2.55"/><circle class="cls-3" cx="43.95" cy="70.7" r="2.55"/><circle class="cls-3" cx="51.75" cy="70.7" r="2.55"/><circle class="cls-3" cx="59.59" cy="70.7" r="2.55"/><circle class="cls-3" cx="67.43" cy="70.8" r="2.55"/><circle class="cls-3" cx="36.07" cy="78.44" r="2.55"/><circle class="cls-3" cx="43.96" cy="78.35" r="2.55"/><circle class="cls-3" cx="51.76" cy="78.35" r="2.55"/><circle class="cls-3" cx="59.59" cy="78.35" r="2.55"/><circle class="cls-3" cx="67.44" cy="78.44" r="2.55"/></svg>