<svg xmlns="http://www.w3.org/2000/svg" viewBox="0 0 108 108"><defs><style>.cls-1{fill:#c8ccd3;}.cls-2{fill:#c3162d;stroke:#fff;stroke-miterlimit:10;opacity:0.95;}.cls-3{fill:#fff;}</style></defs><title>kingston</title><g id="Activated"><circle class="cls-1" cx="53.74" cy="54.16" r="48.06"/><rect class="cls-2" x="32.89" y="27.89" width="41.68" height="56.29" rx="5.87" ry="5.87"/><rect class="cls-3" x="35.67" y="31.32" width="36.01" height="7.72" rx="2.53" ry="2.53"/><circle class="cls-3" cx="61.59" cy="45.05" r="2.7"/><circle class="cls-3" cx="69.43" cy="45.05" r="2.7"/><circle class="cls-3" cx="38.06" cy="52.98" r="2.55"/><circle class="cls-3" cx="45.95" cy="52.88" r="2.55"/><circle class="cls-3" cx="53.75" cy="52.88" r="2.55"/><circle class="cls-3" cx="61.59" cy="52.88" r="2.55"/><circle class="cls-3" cx="69.43" cy="52.98" r="2.55"/><circle class="cls-3" cx="38.07" cy="60.84" r="2.55"/><circle class="cls-3" cx="45.95" cy="60.75" r="2.55"/><circle class="cls-3" cx="53.75" cy="60.75" r="2.55"/><circle class="cls-3" cx="61.59" cy="60.75" r="2.55"/><circle class="cls-3" cx="69.43" cy="60.84" r="2.55"/><circle class="cls-3" cx="38.07" cy="68.8" r="2.55"/><circle class="cls-3" cx="45.95" cy="68.7" r="2.55"/><circle class="cls-3" cx="53.75" cy="68.7" r="2.55"/><circle class="cls-3" cx="61.59" cy="68.7" r="2.55"/><circle class="cls-3" cx="69.43" cy="68.8" r="2.55"/><circle class="cls-3" cx="38.07" cy="76.44" r="2.55"/><circle class="cls-3" cx="45.96" cy="76.35" r="2.55"/><circle class="cls-3" cx="53.76" cy="76.35" r="2.55"/><circle class="cls-3" cx="61.59" cy="76.35" r="2.55"/><circle class="cls-3" cx="69.44" cy="76.44" r="2.55"/></g></svg>