<svg xmlns="http://www.w3.org/2000/svg" xmlns:xlink="http://www.w3.org/1999/xlink" viewBox="0 0 108 108"><defs><style>.cls-1{fill:none;}.cls-2{clip-path:url(#clip-path);}.cls-3{fill:#c8ccd3;}.cls-4{fill:#c3162d;}.cls-5{fill:#fff;}</style><clipPath id="clip-path"><circle class="cls-1" cx="53.6" cy="54.2" r="48.06"/></clipPath></defs><title>martin_Hall</title><g id="Activated"><g class="cls-2"><circle class="cls-3" cx="53.6" cy="54.2" r="48.06"/><path class="cls-4" d="M64.92,103.78H33.06A67.11,67.11,0,0,0,34.83,92.7c.5-6.26.37-13.34-2.86-18.92A73.53,73.53,0,0,1,27.14,65a46.4,46.4,0,0,1-3-10.91C23,46.81,23.73,38.88,27.8,32.52,35.94,19.81,53.07,18.44,66.28,23a20.47,20.47,0,0,1,9.59,6.33c3.18,4.06,4.08,8.91,5.25,13.8A24.54,24.54,0,0,1,82,51.55,10.41,10.41,0,0,0,83.79,59c1.44,1.86,5.86,5.53,2.86,8.08-.87.75-2,.63-2.82,1.48A2.85,2.85,0,0,0,83,70.21c-.13,1,.53,1.7.66,2.63a1.19,1.19,0,0,1-1,1.51c1.64.78-.18,2.61-.46,3.76a12.64,12.64,0,0,0-.3,2.74,8.08,8.08,0,0,1-1.77,5.38c-4.2,4.5-14.84-3.92-16.46,4.5-.43,2.28.07,4.94.38,7.2C64.27,99.89,64.67,101.82,64.92,103.78Z"/><path class="cls-5" d="M40.15,62c2.87,4.31,11.41,1.46,9.11-3.61,0,0,4.9,1.07,6-3.58,0,0,5.79,4.15,9.53-1.74,2.14,1.08,4.64,1.06,6.2-1,.77-1,.87-1.58,1.72-2.25s2-.73,2.89-1.79c1.13-1.43.69-2.61.75-4.27,0-1.44.44-2.44.61-4,.43-4-3.49-7.63-7.45-7.16,0,0-1.5-5.79-7.33-3.35,0,0-2.84-4.88-7.93-1.27-3-3.4-9.45-2.87-11,1.81,0,0-4.52-1.77-7,3.82-3.47-.54-6.68,3.72-4,6.62-4.09,1.56-8,9.3-2.25,11.52C27.06,59.23,33.23,63.94,40.15,62Z"/><path class="cls-5" d="M36.71,43.31c.24-.47,2.88.51,3.39.57a10.26,10.26,0,0,0,3-.08c.47-.07,1.61-.36,1.64-1s-.78-.71-1.25-.63c-2.09.33-3.85-.76-5.9-.63-1.26.09-2.93.46-3.56,1.69s2.27.93,2.7.07Z"/><path class="cls-5" d="M35.62,46.52c.4-1.15,3.81.22,4.68.3a4,4,0,0,0,2.87-.71c.51-.39.27-.76-.24-.9a2.75,2.75,0,0,0-2,.55l-.19.15,1.36-.54c-1,.13-2.21-.52-3.2-.72a7.22,7.22,0,0,0-2.74-.08,4.07,4.07,0,0,0-3.37,2.36c-.29.84,2.57.48,2.88-.41Z"/><polygon class="cls-4" points="38.17 41.35 38.57 41.21 38.57 40.89 38.17 40.76 38.24 40.21 38.62 40.21 38.78 39.9 38.42 39.57 38.72 39.06 39.1 39.23 39.34 38.98 39.1 38.58 39.54 38.18 39.86 38.46 40.18 38.31 40.1 37.88 40.61 37.68 40.79 38.01 41.16 38.01 41.21 37.54 41.84 37.49 41.84 37.94 42.24 38.02 42.4 37.63 42.99 37.79 42.91 38.27 43.19 38.37 43.49 38.11 43.94 38.45 43.77 38.83 43.94 39.09 44.34 38.93 44.67 39.42 44.36 39.73 44.45 40.06 44.9 40.02 45 40.61 44.59 40.73 44.59 41.1 45 41.2 44.95 41.82 44.5 41.82 44.41 42.08 44.74 42.38 44.46 42.9 44.06 42.73 43.84 42.99 44.08 43.33 43.64 43.76 43.28 43.47 43.03 43.66 43.11 44.09 42.55 44.27 42.38 43.96 42.03 43.94 41.97 44.39 41.35 44.39 41.29 44.01 40.95 43.95 40.76 44.39 40.21 44.18 40.27 43.73 39.97 43.53 39.65 43.87 39.18 43.47 39.42 43.14 39.24 42.87 38.83 43 38.45 42.52 38.83 42.22 38.7 41.91 38.24 41.96 38.17 41.35"/><path class="cls-5" d="M41.22,41.08a1.73,1.73,0,0,1-.56,1.39.27.27,0,0,1-.37,0,1.7,1.7,0,0,1-.71-1.35.34.34,0,0,1,.32-.3A2.47,2.47,0,0,1,41.22,41.08Z"/><path class="cls-5" d="M41.8,41.21a1.73,1.73,0,0,1,1.36.62.26.26,0,0,1,0,.36,1.66,1.66,0,0,1-1.37.66.33.33,0,0,1-.28-.33A2.39,2.39,0,0,1,41.8,41.21Z"/><path class="cls-5" d="M42,40.75a1.73,1.73,0,0,1,.53-1.4.26.26,0,0,1,.36,0,1.68,1.68,0,0,1,.75,1.33.33.33,0,0,1-.31.3A2.49,2.49,0,0,1,42,40.75Z"/><path class="cls-5" d="M41.32,40.56A1.73,1.73,0,0,1,40,39.92a.26.26,0,0,1,0-.36,1.65,1.65,0,0,1,1.38-.64.34.34,0,0,1,.28.33A2.46,2.46,0,0,1,41.32,40.56Z"/><circle class="cls-5" cx="41.59" cy="40.91" r="0.28"/><polygon class="cls-4" points="47 42.38 47.53 42.2 47.53 41.78 47 41.6 47.09 40.88 47.6 40.88 47.81 40.47 47.33 40.04 47.72 39.36 48.23 39.59 48.55 39.26 48.23 38.73 48.8 38.2 49.22 38.58 49.64 38.38 49.54 37.81 50.22 37.54 50.46 37.98 50.94 37.98 51.01 37.36 51.84 37.3 51.84 37.89 52.36 37.99 52.57 37.48 53.36 37.69 53.25 38.33 53.61 38.46 54.02 38.12 54.6 38.57 54.38 39.06 54.6 39.41 55.13 39.2 55.56 39.84 55.16 40.25 55.28 40.68 55.87 40.64 56 41.41 55.46 41.57 55.46 42.05 56 42.19 55.94 43 55.34 43 55.22 43.34 55.65 43.73 55.29 44.42 54.77 44.2 54.47 44.55 54.78 45 54.21 45.55 53.73 45.18 53.4 45.43 53.51 45.99 52.77 46.23 52.54 45.82 52.09 45.79 52 46.39 51.19 46.39 51.12 45.88 50.67 45.81 50.41 46.39 49.69 46.11 49.77 45.52 49.37 45.25 48.95 45.7 48.34 45.18 48.65 44.74 48.41 44.38 47.87 44.56 47.38 43.93 47.87 43.52 47.71 43.12 47.09 43.19 47 42.38"/><path class="cls-5" d="M51,42a2.33,2.33,0,0,1-.75,1.83.35.35,0,0,1-.48,0,2.26,2.26,0,0,1-.94-1.78.44.44,0,0,1,.42-.39A3.29,3.29,0,0,1,51,42Z"/><path class="cls-5" d="M51.78,42.2a2.3,2.3,0,0,1,1.79.81.35.35,0,0,1,0,.48,2.25,2.25,0,0,1-1.82.87.44.44,0,0,1-.37-.43A3.25,3.25,0,0,1,51.78,42.2Z"/><path class="cls-5" d="M52,41.59a2.29,2.29,0,0,1,.7-1.84.35.35,0,0,1,.48,0,2.25,2.25,0,0,1,1,1.75.44.44,0,0,1-.41.4A3.17,3.17,0,0,1,52,41.59Z"/><path class="cls-5" d="M51.15,41.34a2.27,2.27,0,0,1-1.78-.84.35.35,0,0,1,0-.48,2.25,2.25,0,0,1,1.83-.84.43.43,0,0,1,.36.44A3.15,3.15,0,0,1,51.15,41.34Z"/><circle class="cls-5" cx="51.5" cy="41.81" r="0.37"/><polygon class="cls-4" points="36.74 53.48 37.51 53.22 37.51 52.6 36.74 52.33 36.87 51.27 37.63 51.27 37.94 50.67 37.23 50.03 37.8 49.03 38.55 49.37 39.02 48.88 38.55 48.1 39.4 47.33 40.02 47.88 40.63 47.59 40.48 46.75 41.48 46.35 41.83 47 42.54 47 42.65 46.09 43.87 46 43.87 46.86 44.64 47.02 44.95 46.27 46.1 46.58 45.95 47.51 46.48 47.7 47.08 47.2 47.94 47.86 47.61 48.59 47.94 49.1 48.72 48.79 49.36 49.74 48.76 50.34 48.94 50.98 49.8 50.91 50 52.04 49.2 52.29 49.2 53 50 53.2 49.91 54.39 49.03 54.39 48.85 54.9 49.49 55.48 48.96 56.49 48.19 56.16 47.74 56.67 48.21 57.34 47.37 58.15 46.66 57.6 46.17 57.98 46.33 58.8 45.24 59.15 44.91 58.55 44.24 58.51 44.11 59.39 42.92 59.39 42.8 58.64 42.14 58.53 41.77 59.39 40.7 58.97 40.81 58.11 40.24 57.71 39.62 58.38 38.71 57.6 39.17 56.96 38.82 56.43 38.02 56.69 37.29 55.76 38.02 55.16 37.78 54.57 36.87 54.68 36.74 53.48"/><path class="cls-5" d="M42.67,53a3.39,3.39,0,0,1-1.1,2.69.53.53,0,0,1-.71,0A3.33,3.33,0,0,1,39.48,53a.64.64,0,0,1,.62-.57A4.69,4.69,0,0,1,42.67,53Z"/><path class="cls-5" d="M43.78,53.21a3.4,3.4,0,0,1,2.65,1.2.52.52,0,0,1,0,.71,3.32,3.32,0,0,1-2.68,1.28.65.65,0,0,1-.54-.64A4.77,4.77,0,0,1,43.78,53.21Z"/><path class="cls-5" d="M44.08,52.32a3.36,3.36,0,0,1,1-2.72.52.52,0,0,1,.71,0,3.29,3.29,0,0,1,1.45,2.58.64.64,0,0,1-.6.59A4.87,4.87,0,0,1,44.08,52.32Z"/><path class="cls-5" d="M42.86,52a3.36,3.36,0,0,1-2.63-1.24.52.52,0,0,1,0-.71A3.28,3.28,0,0,1,43,48.77a.64.64,0,0,1,.53.64A4.73,4.73,0,0,1,42.86,52Z"/><circle class="cls-5" cx="43.37" cy="52.64" r="0.55"/></g></g></svg>