<svg xmlns="http://www.w3.org/2000/svg" viewBox="0 0 108 108"><defs><style>.cls-1{fill:#c8ccd3;}.cls-2{fill:#c3162d;}</style></defs><title>music_building</title><g id="Activated"><circle class="cls-1" cx="53.66" cy="53.71" r="48.06"/><path class="cls-2" d="M68.56,37.26c-9.83-4.89-8.71-13.2-8.71-13.2,0-1.26-2.2-.85-2.2-.85-3.37,0-2.8,1-2.8,1v44a.24.24,0,0,1-.35.21,17.14,17.14,0,0,0-7.65-1.74c-7.45,0-13.49,4.41-13.49,9.85s6,9.84,13.49,9.84S60.34,82,60.34,76.55A7.16,7.16,0,0,0,60,74.43s0,0,0-.06l-.07-32.51a.25.25,0,0,1,.29-.24C70.4,43.28,69.12,53.5,68.7,55.8a.25.25,0,0,0,.37.25,10.37,10.37,0,0,0,2.32-2.75S78.4,42.16,68.56,37.26Z"/></g></svg>