<svg xmlns="http://www.w3.org/2000/svg" xmlns:xlink="http://www.w3.org/1999/xlink" viewBox="0 0 108 108"><defs><style>.cls-1{fill:none;}.cls-2{clip-path:url(#clip-path);}.cls-3{fill:#20221d;}.cls-3,.cls-6{stroke:#fff;stroke-miterlimit:10;opacity:0.95;}.cls-4{clip-path:url(#clip-path-2);}.cls-5{fill:#c8ccd3;}.cls-6{fill:#c3162d;}.cls-7{fill:#fff;}</style><clipPath id="clip-path"><circle class="cls-1" cx="-74.4" cy="53.52" r="48.06"/></clipPath><clipPath id="clip-path-2"><circle class="cls-1" cx="53.6" cy="53.52" r="48.06"/></clipPath></defs><title>patterson</title><g id="Unactivated"><g class="cls-2"><path class="cls-3" d="M-72.19,79.73-91.08,98.49l3.92-22,21.47-40.42-2-.45,47.15-93.3L41.52-165.35s5.77-4.2,5.63,1.37L-50.29,39.94l-2.77-.8Z"/></g></g><g id="Activated"><g class="cls-4"><circle class="cls-5" cx="53.6" cy="53.04" r="48.06"/><path class="cls-6" d="M55.81,79.73,36.92,98.49l3.92-22L62.31,36.06l-2-.45,47.15-93.3,62.08-107.66s5.77-4.2,5.63,1.37L77.71,39.94l-2.77-.8Z"/><polygon class="cls-7" points="42.74 88.16 38.12 96.39 41.84 87.72 42.04 87.26 42.98 87.72 42.74 88.16"/></g></g></svg>