<svg xmlns="http://www.w3.org/2000/svg" xmlns:xlink="http://www.w3.org/1999/xlink" viewBox="0 0 108 108"><defs><style>.cls-1{fill:none;}.cls-2{clip-path:url(#clip-path);}.cls-3{fill:#c8ccd3;}.cls-4{fill:#c3162d;}</style><clipPath id="clip-path"><circle class="cls-1" cx="56.41" cy="53.6" r="48.06"/></clipPath></defs><title>peb</title><g id="Activated"><g class="cls-2"><circle class="cls-3" cx="56.41" cy="53.6" r="48.06"/><path class="cls-4" d="M33.52,60.8,55.34,47.52,50,36.52s-2.55-5.23,1.4-6.87l22.07-4.43s5-1.83,5.53,4.19c0,0,.37,3.95-4.68,4.8L61.57,36.72s-1.06.09-.52,1l12.3,24.08a6,6,0,0,1-5.58.12c-2.94-1.5-6.26-2.22-9-.5s-7.09,1.19-8.47-.19a7.17,7.17,0,0,0-6.4-.07C40.59,62.81,37.37,63.31,33.52,60.8Z"/><circle class="cls-4" cx="76.46" cy="48.73" r="7.76"/><path class="cls-4" d="M5.37,68.72s2.73.42,7.1-1.58,9.77-.06,10.74.42a16.76,16.76,0,0,0,13.58-.06c6.43-3,12.92.12,12.92.12s5.16,3,13.11,0,12.19,0,12.19,0,6.49,3.18,12.92,0,13.34,0,13.34,0a10,10,0,0,0,4.82,1.13L103.45,76s-7.8-3.63-14-1.37-8.37,2.17-15.48.2a19,19,0,0,0-12.59.72,17.23,17.23,0,0,1-11.49-.1c-6.59-2.21-12.6-.87-14.23,0s-6.15,1.49-10.53.19S15.71,72.74,11.57,75c0,0-2.74,1-3.94.82Z"/><path class="cls-4" d="M4.87,81.35s2.73.43,7.1-1.58,9.76-.06,10.74.43a16.8,16.8,0,0,0,13.58-.06c6.43-3,12.92.11,12.92.11s5.16,3,13.11,0,12.19,0,12.19,0,6.49,3.17,12.92,0,13.34,0,13.34,0a10.06,10.06,0,0,0,4.82,1.14l-2.65,7.31s-7.8-3.63-14-1.37-8.37,2.16-15.48.19a19.13,19.13,0,0,0-12.6.72,17.16,17.16,0,0,1-11.48-.09c-6.59-2.22-12.6-.87-14.23-.05s-6.16,1.49-10.53.19-9.37-2.88-13.51-.67c0,0-2.74,1-3.94.81Z"/></g></g></svg>