<svg id="Unactivated" xmlns="http://www.w3.org/2000/svg" viewBox="0 0 108 108"><defs><style>.cls-1{fill:#c8ccd3;}.cls-2,.cls-4{fill:#20221d;}.cls-3{fill:#fff;}.cls-4{opacity:0.95;}</style></defs><title>r-tv</title><circle class="cls-1" cx="54.21" cy="54.43" r="48.06"/><path class="cls-2" d="M22,35.58a3.18,3.18,0,0,1,3.52-3.16H83.67s3.51-.17,3.59,3.17V77.22s.77,2.4-2.65,3.34H25.24S22,81.25,22,77.48Z"/><path class="cls-3" d="M25.92,38.19s-.05-2,2.4-2.08H68.73a2,2,0,0,1,2.45,2.08V73.44s0,2.5-2.14,2.5H28.37S26,76.31,25.92,73Z"/><path class="cls-4" d="M28.06,42.49a4.16,4.16,0,0,1,.38-1.74A3.94,3.94,0,0,1,32,38.14H64.73a4.67,4.67,0,0,1,.83.08c1.08.23,3.43,1,3.43,3.57V69.26a2.88,2.88,0,0,0,0,.41c.06.6.09,3-3.19,3.92a4,4,0,0,1-1.14.16H32.41a4.38,4.38,0,0,1-1.08-.14,4,4,0,0,1-3.27-4Z"/><circle class="cls-3" cx="79.38" cy="39.91" r="3.84"/><circle class="cls-3" cx="79.38" cy="52.39" r="3.84"/><path class="cls-3" d="M75.55,62.56h7.58a.35.35,0,0,0,.2-.05.82.82,0,0,0,.44-.75.59.59,0,0,0-.52-.65h-7.7s-.66-.07-.63.73S75.55,62.56,75.55,62.56Z"/><path class="cls-3" d="M75.55,65.89h7.58a.35.35,0,0,0,.2,0,.81.81,0,0,0,.44-.75.58.58,0,0,0-.52-.64h-7.7s-.66-.06-.63.73S75.55,65.89,75.55,65.89Z"/><path class="cls-3" d="M75.55,69.22h7.58a.45.45,0,0,0,.2,0,.84.84,0,0,0,.44-.76.58.58,0,0,0-.52-.64h-7.7s-.66-.06-.63.73S75.55,69.22,75.55,69.22Z"/><path class="cls-3" d="M75.55,72.56h7.58a.46.46,0,0,0,.2,0,.84.84,0,0,0,.44-.76.58.58,0,0,0-.52-.64h-7.7s-.66-.07-.63.72S75.55,72.56,75.55,72.56Z"/><path class="cls-3" d="M75.55,75.89h7.58a.46.46,0,0,0,.2,0,.84.84,0,0,0,.44-.76.59.59,0,0,0-.52-.64h-7.7s-.66-.07-.63.72S75.55,75.89,75.55,75.89Z"/></svg>