<svg id="Unactivated" xmlns="http://www.w3.org/2000/svg" xmlns:xlink="http://www.w3.org/1999/xlink" viewBox="0 0 108 108"><defs><style>.cls-1{fill:none;}.cls-2{clip-path:url(#clip-path);}.cls-3{fill:#c8ccd3;}.cls-4{fill:#1c1d16;}.cls-5{fill:#fff;}</style><clipPath id="clip-path"><circle class="cls-1" cx="54.31" cy="54.17" r="48.06"/></clipPath></defs><title>rock_Wall</title><g class="cls-2"><circle class="cls-3" cx="54.31" cy="54.17" r="48.06"/><path class="cls-4" d="M22,32.93,25.5,34s1.45.51,2-.62.31-1.68,3.24-3.15c0,0,1.05-.42.3-1.76,0,0-1.84-1.22-2-1.88s-4.81-1.49-6.61-.44-2.88,1.6-4.05,4.21.11,3.43.71,3.53A3.64,3.64,0,0,0,22,32.93Z"/><circle class="cls-5" cx="20.29" cy="30.99" r="0.75"/><circle class="cls-4" cx="20.29" cy="30.96" r="0.3"/><path class="cls-4" d="M20.42,66.21s1.25.52.78,2.53a2.39,2.39,0,0,0,1.2,1.12l1.87,2.47s1.67,1.45,2.8,0A8.18,8.18,0,0,1,27.64,68c.95-1.64-1.32-3.08-1.46-3a5,5,0,0,0-1.72,1c-.7.64-1.61-.56-1.61-.56s-1.37-1.6-2-.56S20.42,66.21,20.42,66.21Z"/><circle class="cls-5" cx="26.08" cy="66.61" r="0.48"/><circle class="cls-4" cx="26.08" cy="66.59" r="0.19"/><path class="cls-4" d="M75.63,79.86s4.16-.21,5.16-5.3,5.46-2.49,5.46-2.49.53,1,1.14,1.09.88,4.14-.48,5.69-2.63,3.3-4.74,3.88-1.92-.64-3.41.08c0,0-1.13-.79-1.67-.51S74.58,80.67,75.63,79.86Z"/><ellipse class="cls-5" cx="85.61" cy="74.87" rx="0.74" ry="0.67" transform="translate(-17.34 123.21) rotate(-66.32)"/><ellipse class="cls-4" cx="85.63" cy="74.85" rx="0.29" ry="0.27" transform="translate(-17.31 123.21) rotate(-66.32)"/><path class="cls-4" d="M45.36,44.49v14H62.88V42l15-24s2.51-3.42-1-5.83-6,2.57-6,2.57L58.78,34.38l-8.67-.08L35.58,40l-7-10.71s-2.2-2.95-5.4-1.25-1.37,5.11-1.37,5.11l8.72,13.36S32.22,50,36.33,48Z"/><path class="cls-4" d="M62.75,61.3H45.48L32,92.4s-1.51,4,2,6.28a4.74,4.74,0,0,0,6.12-.58L51.69,71.7s3.45,1.13,6.26-.11L70,66,72.7,76.56s1,4.42,5.16,3.87a4.53,4.53,0,0,0,4-4.65l-4.2-17.32s-.78-5.44-6.08-4.2l-8.71,4.2Z"/><circle class="cls-4" cx="53" cy="25.88" r="7.11"/><polygon class="cls-4" points="60.1 73.58 62.72 72.27 62.72 102.58 60.1 102.58 60.1 73.58"/><path class="cls-4" d="M65.64,50.92v2.6S77.22,49.61,84.17,33A83.73,83.73,0,0,0,92,9.69H89.28S81.91,42.25,65.64,50.92Z"/></g></svg>