<svg xmlns="http://www.w3.org/2000/svg" xmlns:xlink="http://www.w3.org/1999/xlink" viewBox="0 0 108 108"><defs><style>.cls-1{fill:none;}.cls-2{clip-path:url(#clip-path);}.cls-3{fill:#c8ccd3;}.cls-4{fill:#c3162d;}.cls-5{fill:#fff;}</style><clipPath id="clip-path"><circle class="cls-1" cx="56.31" cy="54.17" r="48.06"/></clipPath></defs><title>rock_Wall</title><g id="Activated"><g class="cls-2"><circle class="cls-3" cx="56.31" cy="54.17" r="48.06"/><path class="cls-4" d="M24,32.93,27.5,34s1.45.51,2-.62.31-1.68,3.24-3.15c0,0,1-.42.3-1.76,0,0-1.84-1.22-2-1.88s-4.81-1.49-6.61-.44-2.88,1.6-4.05,4.21.11,3.43.71,3.53A3.64,3.64,0,0,0,24,32.93Z"/><circle class="cls-5" cx="22.29" cy="30.99" r="0.75"/><circle class="cls-4" cx="22.29" cy="30.96" r="0.3"/><path class="cls-4" d="M22.42,66.21s1.25.52.78,2.53a2.39,2.39,0,0,0,1.2,1.12l1.87,2.47s1.67,1.45,2.8,0A8.18,8.18,0,0,1,29.64,68c.95-1.64-1.32-3.08-1.46-3a5,5,0,0,0-1.72,1c-.7.64-1.61-.56-1.61-.56s-1.37-1.6-2-.56S22.42,66.21,22.42,66.21Z"/><circle class="cls-5" cx="28.08" cy="66.61" r="0.48"/><circle class="cls-4" cx="28.08" cy="66.59" r="0.19"/><path class="cls-4" d="M77.63,79.86s4.16-.21,5.16-5.3,5.46-2.49,5.46-2.49.53,1,1.14,1.09.88,4.14-.48,5.69-2.63,3.3-4.74,3.88-1.92-.64-3.41.08c0,0-1.13-.79-1.67-.51S76.58,80.67,77.63,79.86Z"/><ellipse class="cls-5" cx="87.61" cy="74.87" rx="0.74" ry="0.67" transform="translate(-16.14 125.04) rotate(-66.32)"/><ellipse class="cls-4" cx="87.63" cy="74.85" rx="0.29" ry="0.27" transform="translate(-16.11 125.04) rotate(-66.32)"/><path class="cls-4" d="M47.36,44.49v14H64.88V42l15-24s2.51-3.42-1-5.83-6,2.57-6,2.57L60.78,34.38l-8.67-.08L37.58,40l-7-10.71s-2.2-2.95-5.4-1.25-1.37,5.11-1.37,5.11l8.72,13.36S34.22,50,38.33,48Z"/><path class="cls-4" d="M64.75,61.3H47.48L34,92.4s-1.51,4,2,6.28a4.74,4.74,0,0,0,6.12-.58L53.69,71.7s3.45,1.13,6.26-.11L72,66,74.7,76.56s1,4.42,5.16,3.87a4.53,4.53,0,0,0,4-4.65l-4.2-17.32s-.78-5.44-6.08-4.2l-8.71,4.2Z"/><circle class="cls-4" cx="55" cy="25.88" r="7.11"/><polygon class="cls-4" points="62.1 73.58 64.72 72.27 64.72 102.58 62.1 102.58 62.1 73.58"/><path class="cls-4" d="M67.64,50.92v2.6S79.22,49.61,86.17,33A83.73,83.73,0,0,0,94,9.69H91.28S83.91,42.25,67.64,50.92Z"/></g></g></svg>