<svg id="Unactivated" xmlns="http://www.w3.org/2000/svg" viewBox="0 0 108 108"><defs><style>.cls-1{fill:#c8ccd3;}.cls-2{fill:#1c1d16;opacity:0.95;}.cls-3{fill:none;stroke:#fff;stroke-miterlimit:10;}</style></defs><title>roos_Field</title><circle class="cls-1" cx="53.7" cy="52.79" r="48.06"/><path class="cls-2" d="M37.21,82.18c-11.8,1-12.1-13.57-10.56-21.77C29,47.84,36.27,36.22,47.52,29.81c7.8-4.44,27.06-11.23,33.59-1.44,5.61,8.42,1.76,22-2.35,30.16C70.75,74.43,54.6,82.08,37.21,82.18Z"/><path class="cls-3" d="M45.08,54.47S59.54,38,65.22,34"/><path class="cls-3" d="M68,36.89A7.73,7.73,0,0,0,62.07,33"/><path class="cls-3" d="M59.28,35.25s4.18,1.69,5.94,4.4"/><path class="cls-3" d="M62.25,42.19S61,39.05,56.41,37.72"/><line class="cls-3" x1="53.09" y1="40.44" x2="59.52" y2="44.91"/><path class="cls-3" d="M50.34,43.25s4.47,1.33,6.43,4.62"/><path class="cls-3" d="M47.86,46.45a22,22,0,0,1,5.83,4.26"/><path class="cls-3" d="M44.82,49.92s5.46,3.66,6,4.38"/><path class="cls-3" d="M48.22,57.74s-2.47-4.68-6.28-4.86"/></svg>