<svg xmlns="http://www.w3.org/2000/svg" xmlns:xlink="http://www.w3.org/1999/xlink" viewBox="0 0 108 108"><defs><style>.cls-1{fill:none;}.cls-2{clip-path:url(#clip-path);}.cls-3{fill:#20221d;}.cls-4{clip-path:url(#clip-path-2);}.cls-5{fill:#c8ccd3;}.cls-6{fill:#c3162d;}.cls-7{fill:#fff;}</style><clipPath id="clip-path"><circle class="cls-1" cx="-73.67" cy="54.17" r="48.06"/></clipPath><clipPath id="clip-path-2"><circle class="cls-1" cx="54.33" cy="54.17" r="48.06"/></clipPath></defs><title>roost</title><g id="Unactivated"><g class="cls-2"><g id="Rooster"><path id="body" class="cls-3" d="M-62.51,101.81A7.13,7.13,0,0,0-67.68,95C-73,93.38-95.16,78-82.46,38.61c0,0,1.36-1.57-.43-.55s-3.66-.68-2.79-6c0,0,1.42-.81-2.6,0,0,0-.74-1.15,1.3-2.17,0,0-1.86-3-.31-4.82a8.93,8.93,0,0,0,1.73-4.56s1.06.48,1.06,1,1.36-.2.74-3.33c0,0,.87.41,1.49,2.72.74.43,2.78-3.12,2.1-3.8,0,0,1,.34.56,3.05s3-1.63,3-1.63,1-.54.44,2.31,3.53-1.69,3.53-1.69-1.18,4.41.93,2.71.43,6.05-4.09,5.23c0,0,10.71,6.73,15.48,26.7,10.53,14.47,23.22.75,24.28-5.43,2.1-5.64,16.78-19.23,30.15-12.5s14,26.42,14,26.42S4.49,48.05-8.58,45.4c0,0,11.08,6.52,13.19,18.34,0,0-9.23-12.43-14.43-13.11,0,0,8.61,7.34,11.46,17.19,0,0-7.12-10.47-11.46-12.16,0,0,4.71,8.76,4.34,15.82,0,0-3.91-9-6-10.53,0,0,5.82,9.65,4.71,16.24,0,0-4.9-14.33-11.34-16.51,0,0,7.93,8.22,8.18,18,0,0-6-11.88-10.72-13.58,0,0,4.59,6.25,4,12.09,0,0-2.42-5.37-4.77-5.84,0,0-1.73,6.59-5,9.24a10.12,10.12,0,0,0-3.77,5.57,16.34,16.34,0,0,1-8.55,5.23s-.3,6-9.31,8.08c0,0-1.15,5.37-4.31,6.59l-.44,6.66s.87.2,1.68-1.29a2,2,0,0,1-1.68,2.1l.07,3.4,3.28,2.24-3.41-.41-4.46,2.72-.12-2-7.43,1.22a15.11,15.11,0,0,1,7.43-2.85s3.34-1,2.6-8.35l.12-3.26s-1-.75-3.28.54l-1.79,5.5s.68,1.16,2-1.36c0,0,0,2.72-2.29,2.45l.12,2.51,1.61,3.06-2.35-1.09-3.16,3.6-1.05-2.38-10.34,1.3s1.36-1.36,9.72-2.79c0,0,4.33-1.56,5.32-11.14,0,0,.62-1.43-.55-1.9C-60.72,104.57-61.91,104.64-62.51,101.81Z"/></g></g></g><g id="Activated"><g class="cls-4"><circle class="cls-5" cx="54.33" cy="54.17" r="48.06"/><path id="body-2" data-name="body" class="cls-6" d="M65.49,101.81A7.13,7.13,0,0,0,60.32,95C55,93.38,32.84,78,45.54,38.61c0,0,1.36-1.57-.43-.55s-3.66-.68-2.79-6c0,0,1.42-.81-2.6,0,0,0-.74-1.15,1.3-2.17,0,0-1.86-3-.31-4.82a8.93,8.93,0,0,0,1.73-4.56s1.06.48,1.06,1,1.36-.2.74-3.33c0,0,.87.41,1.49,2.72.74.43,2.78-3.12,2.1-3.8,0,0,1,.34.56,3.05s3-1.63,3-1.63,1-.54.44,2.31,3.53-1.69,3.53-1.69-1.18,4.41.93,2.71.43,6.05-4.09,5.23c0,0,10.71,6.73,15.48,26.7,10.53,14.47,23.22.75,24.28-5.43,2.1-5.64,16.78-19.23,30.15-12.5s14,26.42,14,26.42-3.65-14.26-16.72-16.91c0,0,11.08,6.52,13.19,18.34,0,0-9.23-12.43-14.43-13.11,0,0,8.61,7.34,11.46,17.19,0,0-7.12-10.47-11.46-12.16,0,0,4.71,8.76,4.34,15.82,0,0-3.91-9-6-10.53,0,0,5.82,9.65,4.71,16.24,0,0-4.9-14.33-11.34-16.51,0,0,7.93,8.22,8.18,18,0,0-6-11.88-10.72-13.58,0,0,4.59,6.25,4,12.09,0,0-2.42-5.37-4.77-5.84,0,0-1.73,6.59-5,9.24a10.12,10.12,0,0,0-3.77,5.57,16.34,16.34,0,0,1-8.55,5.23s-.3,6-9.31,8.08c0,0-1.15,5.37-4.31,6.59l-.44,6.66s.87.2,1.68-1.29a2,2,0,0,1-1.68,2.1l.07,3.4,3.28,2.24-3.41-.41-4.46,2.72-.12-2-7.43,1.22a15.11,15.11,0,0,1,7.43-2.85s3.34-1,2.6-8.35l.12-3.26s-1-.75-3.28.54l-1.79,5.5s.68,1.16,2-1.36c0,0,0,2.72-2.29,2.45l.12,2.51L69.69,119l-2.35-1.09-3.16,3.6-1.05-2.38-10.34,1.3s1.36-1.36,9.72-2.79c0,0,4.33-1.56,5.32-11.14,0,0,.62-1.43-.55-1.9C67.28,104.57,66.09,104.64,65.49,101.81Z"/><g id="eye"><path class="cls-7" d="M43.17,29.08a.63.63,0,0,0,0-1.25.63.63,0,0,0,0,1.25Z"/></g></g></g></svg>