<svg id="Unactivated" xmlns="http://www.w3.org/2000/svg" xmlns:xlink="http://www.w3.org/1999/xlink" viewBox="0 0 108 108"><defs><style>.cls-1{fill:none;}.cls-2{clip-path:url(#clip-path);}.cls-3{fill:#c8ccd3;}.cls-4{fill:#1c1d16;}.cls-5{fill:#fff;}</style><clipPath id="clip-path"><circle class="cls-1" cx="53.75" cy="54.17" r="48.06"/></clipPath></defs><title>senior_Hall</title><g class="cls-2"><circle class="cls-3" cx="53.75" cy="54.17" r="48.06"/><path class="cls-4" d="M50.7,114.06V90s.87-1.75-1.75-3.06l-11.16-9.3s-1.79-1.85,0-2.52,7.55,4.42,7.55,4.42,4.22,1.34,4.28-2.39l-.46-7.23S44.81,58,46.5,56.11s2.88,3.31,2.88,3.31l2.16,8.17s.42,1.8,2,1.62c1-.12.48-3.24.48-3.24s-1.87-13,.9-13.7,2.16,11.17,2.16,11.17-.69,5.24,1.26,5.53S59.9,63.53,60,63c0,0-.61-9.19,1.86-9.19s.9,10.87.9,10.87-1,5.37,0,5.51c1.17.49,1.5-1.48,1.5-1.48s1.44-9.43,3.13-9.55,0,8.53,0,8.53l-1.09,3.42s.19,12.94-3.16,15.23a2,2,0,0,0-.85,1.69l.23,25.69Z"/><path class="cls-4" d="M70.64,83.14V58.81s.88-1.77-1.77-3.1l-11.28-9.4s-1.81-1.86,0-2.54,7.63,4.47,7.63,4.47,4.27,1.35,4.33-2.41l-.47-7.31s-4.39-12-2.69-14,2.91,3.34,2.91,3.34l2.19,8.26s.42,1.82,2,1.64c1-.12.49-3.28.49-3.28s-1.88-13.12.91-13.85S77.08,32,77.08,32s-.7,5.29,1.27,5.58,1.59-5.5,1.64-6c0,0-.61-9.29,1.88-9.29s.92,11,.92,11-1,5.43,0,5.57c1.18.49,1.51-1.5,1.51-1.5s1.46-9.54,3.16-9.66,0,8.63,0,8.63l-1.09,3.46s.19,13.08-3.2,15.4a2,2,0,0,0-.86,1.7l.23,26Z"/><polygon class="cls-4" points="70.64 83.14 70.64 96.94 83.15 96.94 82.53 81.47 70.64 83.14"/><path class="cls-4" d="M22.67,88.44V64.1s.88-1.77-1.77-3.09L9.63,51.61s-1.82-1.87,0-2.55,7.63,4.47,7.63,4.47,4.26,1.35,4.32-2.41l-.46-7.31s-4.4-12-2.7-14,2.92,3.34,2.92,3.34l2.18,8.26s.43,1.82,2,1.64c1-.12.48-3.28.48-3.28S24.13,26.7,26.92,26s2.19,11.3,2.19,11.3-.7,5.29,1.28,5.59,1.58-5.51,1.64-6c0,0-.61-9.29,1.88-9.29s.91,11,.91,11-1,5.43,0,5.57c1.18.5,1.52-1.5,1.52-1.5S37.8,33.08,39.5,33s0,8.62,0,8.62L38.4,45s.19,13.08-3.2,15.4a2,2,0,0,0-.85,1.7l.23,26Z"/><polygon class="cls-4" points="22.67 88.44 22.67 102.23 35.18 102.23 34.56 86.76 22.67 88.44"/></g><path class="cls-5" d="M57,78.64a3.6,3.6,0,0,1,5.59-3.19,2.12,2.12,0,0,1,1,1.24,2.65,2.65,0,0,1-.4,1.72,10.42,10.42,0,0,1-2.56,3.12c-1.27,1-2.88,1.88-3.48,3.41"/><path class="cls-5" d="M57.15,78.72A4.9,4.9,0,0,0,53,75.44a1.75,1.75,0,0,0-1.43.46,2,2,0,0,0-.4.95,4.35,4.35,0,0,0,0,2.12,5.31,5.31,0,0,0,1.7,2.24l4.2,3.88"/></svg>