<svg xmlns="http://www.w3.org/2000/svg" xmlns:xlink="http://www.w3.org/1999/xlink" viewBox="0 0 108 108"><defs><style>.cls-1,.cls-5{fill:none;}.cls-2{clip-path:url(#clip-path);}.cls-3{fill:#c8ccd3;}.cls-4{fill:#c3162d;}.cls-5{stroke:#fff;stroke-miterlimit:10;stroke-width:0.5px;}</style><clipPath id="clip-path"><circle class="cls-1" cx="54.04" cy="53.52" r="48.06"/></clipPath></defs><title>showalter_Hall</title><g id="Activated"><g class="cls-2"><circle class="cls-3" cx="53.89" cy="53.52" r="48.06"/><circle class="cls-1" cx="53.89" cy="53.52" r="48.06"/><polygon class="cls-4" points="-8.48 83.92 20.73 81.94 25.74 79.98 28.37 79.98 30.69 78.45 30.69 46.89 31.08 46.49 31.08 45.28 31.81 45.01 32.85 44.24 30.57 40.79 29.13 40.63 28.33 39.15 14.67 39.15 14.63 40.79 11.62 40.79 12.19 41.83 12.46 41.9 12.59 42.7 13.73 42.7 13.7 44.58 14.5 44.58 14.42 67.85 -8.48 67.76 -8.48 83.92"/><polyline class="cls-5" points="14.66 46.56 22.14 46.56 22.46 49.59 28.35 49.59 30.66 51.42"/><polyline class="cls-5" points="14.66 54.76 28.35 54.76 30.34 57.23"/><polyline class="cls-5" points="30.66 64 28.51 62.9 25.72 62.9 25.41 59.22 23.89 59.22 14.66 59.22"/><line class="cls-5" x1="20.15" y1="46.56" x2="20.15" y2="51.02"/><polyline class="cls-5" points="25.9 54.76 25.9 51.02 16.5 51.02 16.5 54.76"/><line class="cls-5" x1="14.66" y1="62.9" x2="25.72" y2="62.9"/><polyline class="cls-5" points="14.4 44.7 28.76 44.7 30.66 46.56"/><polyline class="cls-5" points="12.73 42.64 29.49 42.64 31.66 45.63"/><line class="cls-5" x1="14.66" y1="40.69" x2="28.43" y2="40.69"/><polyline class="cls-5" points="12.52 41.86 29.99 41.98 32.25 44.7"/><polyline class="cls-5" points="-8.48 70.22 25.33 70.22 25.33 68.93 28.83 68.93 28.83 65.19 30.66 65.59"/><line class="cls-5" x1="13.63" y1="74.88" x2="13.63" y2="70.22"/><line class="cls-5" x1="6.58" y1="75.3" x2="6.58" y2="70.22"/><line class="cls-5" x1="13.63" y1="73" x2="6.58" y2="73.08"/><polyline class="cls-5" points="30.66 74.88 28.51 75.3 25.11 75.3 22.66 75.78 15.35 75.94 15.35 77.66 18.75 77.66 18.79 81.66"/><polyline class="cls-5" points="25.41 59.22 28.43 59.22 30.34 60.49"/><polygon class="cls-4" points="114.63 83.92 85.41 81.94 80.41 79.98 77.78 79.98 75.46 78.45 75.46 46.89 75.07 46.49 75.07 45.28 74.34 45.01 73.3 44.24 75.58 40.79 77.02 40.63 77.82 39.15 91.48 39.15 91.51 40.79 94.53 40.79 93.96 41.83 93.69 41.9 93.56 42.7 92.42 42.7 92.45 44.58 91.65 44.58 91.72 67.85 114.63 67.76 114.63 83.92"/><polyline class="cls-5" points="91.49 46.56 84.01 46.56 83.69 49.59 77.8 49.59 75.49 51.42"/><polyline class="cls-5" points="91.49 54.76 77.8 54.76 75.81 57.23"/><polyline class="cls-5" points="75.49 64 77.64 62.9 80.42 62.9 80.74 59.22 82.25 59.22 91.49 59.22"/><line class="cls-5" x1="86" y1="46.56" x2="86" y2="51.02"/><polyline class="cls-5" points="80.25 54.76 80.25 51.02 89.64 51.02 89.64 54.76"/><line class="cls-5" x1="91.49" y1="62.9" x2="80.42" y2="62.9"/><polyline class="cls-5" points="91.75 44.7 77.39 44.7 75.49 46.56"/><polyline class="cls-5" points="93.42 42.64 76.66 42.64 74.49 45.63"/><line class="cls-5" x1="91.49" y1="40.69" x2="77.72" y2="40.69"/><polyline class="cls-5" points="93.63 41.86 76.16 41.98 73.9 44.7"/><polyline class="cls-5" points="114.63 70.22 80.82 70.22 80.82 68.93 77.32 68.93 77.32 65.19 75.49 65.59"/><line class="cls-5" x1="92.52" y1="74.88" x2="92.52" y2="70.22"/><line class="cls-5" x1="99.56" y1="75.3" x2="99.56" y2="70.22"/><line class="cls-5" x1="107.33" y1="70.22" x2="107.33" y2="75.78"/><line class="cls-5" x1="107.33" y1="72.34" x2="111.65" y2="72.34"/><line class="cls-5" x1="92.52" y1="73" x2="99.56" y2="73.08"/><polyline class="cls-5" points="75.49 74.88 77.64 75.3 81.04 75.3 83.49 75.78 90.8 75.94 90.8 77.66 87.4 77.66 87.36 81.66"/><polyline class="cls-5" points="80.74 59.22 77.72 59.22 75.81 60.49"/></g></g></svg>