<svg id="Unactivated" xmlns="http://www.w3.org/2000/svg" viewBox="0 0 108 108"><defs><style>.cls-1{fill:#c8ccd3;}.cls-2{fill:#1c1d16;}.cls-3{fill:#fff;}</style></defs><title>sutton_Hall</title><circle class="cls-1" cx="54.33" cy="54.17" r="48.06"/><path class="cls-2" d="M27.2,35.84v1.63s-.87.18-.87,1.4c0,0,.08.93.87,1v3.42a22.89,22.89,0,0,0-1.62,9.83h4.2s0-6.89-1.62-9.72V39.89A1.2,1.2,0,0,0,29,38.6c-.07-1.05-.81-1.14-.81-1.14l0-1.62v-.46h-1Z"/><path class="cls-3" d="M20.81,35.25l16.38,1.52.29,3.12s14.87-9.06,30.67-7.61l-1.31-2.61L80.18,20.1,46.91,14Z"/><path class="cls-2" d="M36.8,32.32l-1.56-2.05s11.89-8.83,29.95-7.54l-.43,2.15-.68-1.05s-15.55-1-27.36,7Z"/><path class="cls-2" d="M61.82,38.87V52.49s16,2.7,15.6,16.49S63.14,85.84,61.82,85.72c0,0,1,10.13-2.1,9.35S57.38,91,57.5,86.32H54.67s.92,9.35-2,8.79-2.15-2.54-2.36-9.56c0,0-9.6-.62-14.11-12,0,0-2.4-5.44,1.9-7.89s6.58,2.72,6.58,2.72,2.64,7.28,5.66,8.33V59.83S33.08,56.26,37.48,39.89c0,0,14.64-10,30.67-7.61,0,0,6.45,3.83,6.73,9.22,0,0,1.12,4.47-2.94,6.08S66.1,45,66.1,45,63.34,39.26,61.82,38.87Z"/><polygon class="cls-1" points="57.37 51.24 57.37 37.52 54.72 37.52 54.72 50.53 57.37 51.24"/><path class="cls-1" d="M50.21,48.84V38.37s-4,2.13-3.71,5.23S48,47.74,50.21,48.84Z"/><path class="cls-1" d="M54.72,77.89V61l2.91.78V77.89A12.74,12.74,0,0,1,54.72,77.89Z"/><path class="cls-1" d="M61.9,76.81V63.2s5.21,2.48,4.92,7.3S61.9,76.81,61.9,76.81Z"/></svg>