<svg id="Unactivated" xmlns="http://www.w3.org/2000/svg" viewBox="0 0 108 108"><defs><style>.cls-1{fill:#c8ccd3;}.cls-2,.cls-3{fill:#c3162d;stroke-miterlimit:10;opacity:0.95;}.cls-2{stroke:#fff;}.cls-3{stroke:#c3162d;stroke-width:0.91px;}</style></defs><title>the_REC</title><circle class="cls-1" cx="53.74" cy="52.01" r="48.06"/><path class="cls-2" d="M26.92,53.54s54.91-1.69,55.92-.78V49.51s-54.46.51-55.92,1Z"/><polygon class="cls-3" points="16.12 53.58 14.73 53.51 14.66 50.52 15.98 50.52 16.12 53.58"/><polygon class="cls-3" points="93.9 49.47 95.14 49.53 95.21 52.53 94.03 52.53 93.9 49.47"/><rect class="cls-2" x="21.63" y="38.25" width="5.56" height="29.01" rx="2.74" ry="2.74" transform="translate(-1.81 0.87) rotate(-1.98)"/><rect class="cls-2" x="17.91" y="42.91" width="3.98" height="20.17" rx="1.73" ry="1.73" transform="translate(-1.52 0.59) rotate(-1.65)"/><rect class="cls-2" x="15.95" y="47.49" width="2.11" height="11.03" rx="1.04" ry="1.04" transform="translate(-1.82 0.62) rotate(-1.98)"/><rect class="cls-2" x="82.83" y="36.52" width="5.56" height="29.01" rx="2.74" ry="2.74" transform="translate(172.04 100.67) rotate(179.08)"/><rect class="cls-2" x="88.14" y="40.79" width="3.98" height="20.17" rx="1.73" ry="1.73" transform="translate(180.78 100.81) rotate(179.4)"/><rect class="cls-2" x="91.97" y="45.4" width="2.11" height="11.03" rx="1.04" ry="1.04" transform="translate(186.86 100.32) rotate(179.08)"/></svg>