<svg id="Unactivated" xmlns="http://www.w3.org/2000/svg" viewBox="0 0 108 108"><defs><style>.cls-1{fill:#c8ccd3;}.cls-2{fill:#1c1d16;}.cls-3{fill:#fff;}.cls-4,.cls-5{fill:none;stroke-miterlimit:10;}.cls-4{stroke:#20221d;stroke-width:0.02px;}.cls-5{stroke:#fff;stroke-width:0.19px;}</style></defs><title>the_PUB</title><circle class="cls-1" cx="53.88" cy="54.2" r="48.06"/><polygon class="cls-2" points="60.06 39.54 62.78 39.54 62.78 38.6 64.78 38.6 64.78 36.8 67.39 36.8 67.39 35.86 69.92 35.86 69.92 33.29 72.76 33.29 72.76 35.95 75.55 35.99 75.55 38.47 76.23 38.47 76.23 34.45 79.18 34.45 79.18 42.03 79.42 42.03 79.42 37.92 81.69 37.95 81.04 51.52 61.29 51.52 60.06 39.54"/><polygon class="cls-2" points="15.87 75.06 18.28 77.24 88.85 77.16 91.46 75.06 80.94 67.73 27.7 67.73 15.87 75.06"/><polygon class="cls-3" points="81.46 66.44 94.32 74.87 13.45 74.87 26.96 66.9 81.46 66.44"/><polygon class="cls-2" points="27.36 67.79 80.17 67.38 90.62 74.24 17.35 74.24 27.36 67.79"/><path class="cls-2" d="M44.72,37.35s5.28-3.76-2-4.72c0,0-6.7-1.58-11.77,0,0,0-7.32,2.06-3,4.94C27.91,37.57,37.27,41.61,44.72,37.35Z"/><path class="cls-3" d="M39.89,22.79h5.88V21.43H38.9L37,34.42s1,.34,1.45,0Z"/><path class="cls-3" d="M30.79,68s.39,3.23,5.68,3,7-3,7-3l1.63-31A15.36,15.36,0,0,1,36.3,39.3c-5.58-.12-8.39-1.73-8.39-1.73Z"/><polygon class="cls-4" points="60.38 51.52 81.04 51.52 80.49 71.04 60.62 71 60.38 51.52"/><polygon class="cls-3" points="60.62 51.52 81.04 51.52 80.49 71.04 60.62 71.04 60.62 51.52"/><line class="cls-5" x1="63.79" y1="52.3" x2="62.78" y2="39.54"/><line class="cls-5" x1="66.13" y1="52.6" x2="64.78" y2="38.6"/><line class="cls-5" x1="67.42" y1="52.79" x2="67.39" y2="36.8"/><line class="cls-5" x1="69.82" y1="52.99" x2="69.92" y2="35.86"/><line class="cls-5" x1="73.26" y1="53.19" x2="72.76" y2="35.94"/><line class="cls-5" x1="75.55" y1="38.47" x2="75.26" y2="52.2"/><line class="cls-5" x1="76.23" y1="38.47" x2="76.52" y2="52.4"/><line class="cls-5" x1="79.27" y1="42.03" x2="79.23" y2="52"/><path class="cls-3" d="M39.38,60.73s13.76,6.36,26.08,0V72.48H39.75Z"/><path class="cls-2" d="M42.52,61.88,41,59.4s16.27,4.32,19.42,3.27C60.38,62.67,52.68,67.12,42.52,61.88Z"/><ellipse class="cls-3" cx="44.56" cy="61.51" rx="0.69" ry="0.78"/><ellipse class="cls-3" cx="46.93" cy="63.57" rx="0.75" ry="0.86"/><ellipse class="cls-3" cx="49.64" cy="62.57" rx="0.75" ry="0.85"/><ellipse class="cls-3" cx="51.95" cy="64.03" rx="0.75" ry="0.85"/></svg>