<svg id="Unactivated" xmlns="http://www.w3.org/2000/svg" viewBox="0 0 108 108"><defs><style>.cls-1{fill:#c8ccd3;}.cls-2,.cls-3,.cls-4{fill:#20221d;stroke-miterlimit:10;opacity:0.95;}.cls-2{stroke:#fff;}.cls-3,.cls-4{stroke:#20221d;}.cls-3{stroke-width:0.91px;}.cls-4{stroke-width:0.89px;}</style></defs><title>the_REC</title><circle class="cls-1" cx="53.74" cy="54.01" r="48.06"/><path class="cls-2" d="M26.92,55.54s54.91-1.69,55.92-.78V51.51s-54.46.51-55.92,1Z"/><polygon class="cls-3" points="16.12 55.58 14.73 55.51 14.66 52.52 15.98 52.52 16.12 55.58"/><polygon class="cls-4" points="93.9 51.47 95.14 51.53 95.21 54.53 94.03 54.53 93.9 51.47"/><rect class="cls-2" x="21.63" y="40.25" width="5.56" height="29.01" rx="2.74" ry="2.74" transform="translate(-1.87 0.87) rotate(-1.98)"/><rect class="cls-2" x="17.91" y="44.91" width="3.98" height="20.17" rx="1.73" ry="1.73" transform="translate(-1.57 0.59) rotate(-1.65)"/><rect class="cls-2" x="15.95" y="49.49" width="2.11" height="11.03" rx="1.04" ry="1.04" transform="translate(-1.89 0.62) rotate(-1.98)"/><rect class="cls-2" x="82.83" y="38.52" width="5.56" height="29.01" rx="2.74" ry="2.74" transform="translate(172.07 104.67) rotate(179.08)"/><rect class="cls-2" x="88.14" y="42.79" width="3.98" height="20.17" rx="1.73" ry="1.73" transform="translate(180.8 104.81) rotate(179.4)"/><rect class="cls-2" x="91.97" y="47.4" width="2.11" height="11.03" rx="1.04" ry="1.04" transform="translate(186.9 104.32) rotate(179.08)"/></svg>