<svg id="Unactivated" xmlns="http://www.w3.org/2000/svg" viewBox="0 0 108 108"><defs><style>.cls-1{fill:#c8ccd3;}.cls-2{fill:#fff;}.cls-3{fill:#20221d;}.cls-3,.cls-4{opacity:0.95;}</style></defs><title>williamson_Hall</title><circle class="cls-1" cx="53.66" cy="53.5" r="48.06"/><path class="cls-2" d="M56.26,39s14.62,1.14,11.67-18.78C67.93,20.21,48.08,27.05,56.26,39Z"/><path class="cls-3" d="M52.07,41.36a1.71,1.71,0,0,0,1.7,0s.33-9.22-9.18-17.28c0,0-2.27,1.41-2.73,2.52C41.86,26.6,50.57,32.18,52.07,41.36Z"/><path class="cls-4" d="M76.79,47A17.22,17.22,0,0,0,65,39.79s-5.88-.29-9,1.81a5.21,5.21,0,0,1-5.92,0c-.56.28-6.53-4.32-14.22-.36a6.9,6.9,0,0,1-3.15,12.07,6.9,6.9,0,0,1-5.91,9.17,30.39,30.39,0,0,0,2.13,7.11c-.58.22,9.51,19.76,17.87,16.14s9.1,0,14,.18a8.26,8.26,0,0,0,7-3c7.39-4.66,10.92-17.75,10.92-17.75C79.44,63.13,81.27,53.5,76.79,47Z"/></svg>