<svg xmlns="http://www.w3.org/2000/svg" xmlns:xlink="http://www.w3.org/1999/xlink" viewBox="0 0 108 108"><defs><style>.cls-1,.cls-3{fill:none;}.cls-2{clip-path:url(#clip-path);}.cls-3{stroke:#20221d;stroke-miterlimit:10;stroke-width:1.55px;}.cls-4{clip-path:url(#clip-path-2);}.cls-5{fill:#c8ccd3;}.cls-6{fill:#c3162d;}</style><clipPath id="clip-path"><circle class="cls-1" cx="-74.11" cy="54.12" r="48.06"/></clipPath><clipPath id="clip-path-2"><circle class="cls-1" cx="53.89" cy="54.12" r="48.06"/></clipPath></defs><title>campus_Mall</title><g id="Unactivated"><g class="cls-2"><rect class="cls-3" x="-453.46" y="-537.86" width="756.86" height="1230.01"/></g></g><g id="Activated"><g class="cls-4"><rect class="cls-3" x="-325.46" y="-537.86" width="756.86" height="1230.01"/><circle class="cls-5" cx="53.89" cy="54.12" r="48.06"/><path class="cls-6" d="M79.49,108.14,78.08,30.28c0-.75-.07-1.78-.11-3.24,0-1.78-.28-9.69-2.62-10-3.57-.52-2.49,10.18-3.85,9.85,0,0-37.95-1.87-38.79,18.14S63.16,58.56,63.16,58.56h0l.45,50.5s5,2,10,3.48A4.55,4.55,0,0,0,79.49,108.14Z"/></g></g></svg>