<svg xmlns="http://www.w3.org/2000/svg" xmlns:xlink="http://www.w3.org/1999/xlink" viewBox="0 0 108 108"><defs><style>.cls-1,.cls-6{fill:none;}.cls-2{clip-path:url(#clip-path);}.cls-3{fill:#c8ccd3;}.cls-4{fill:#c3162d;}.cls-5{fill:#fff;}.cls-6{stroke:#fff;stroke-miterlimit:10;stroke-width:1.28px;}</style><clipPath id="clip-path"><circle class="cls-1" cx="54.27" cy="53.74" r="48.06"/></clipPath></defs><title>ice_Rink</title><g id="Activated"><g class="cls-2"><circle class="cls-3" cx="54.27" cy="53.74" r="48.06"/><path class="cls-4" d="M33.72,59.79s1.41,9.08,8.37,7L60.35,64.5l23.94-2.94s4.83-1.45,5.66,1.87l2.35,8.39s1.3,4.48-2.94,4.36-52.11,0-52.11,0-9.78-.59-11.9-6.84L-3.89-65.87a1.68,1.68,0,0,1-1.73-2.24s2-2.66,7.22-1.48c0,0,1.72,1.54-.35,2.55Z"/><polygon class="cls-5" points="62.74 76.18 60.35 64.58 82.56 61.77 85.03 76.18 62.74 76.18"/><polygon class="cls-4" points="64.8 65.17 66.99 76.18 66.13 76.18 64.8 65.17"/><polygon class="cls-4" points="69.76 63.35 71.56 74.6 71.09 63.18 69.76 63.35"/><polygon class="cls-4" points="77.14 64.04 78.86 76.18 80.72 76.18 77.14 64.04"/><line class="cls-6" x1="22.12" y1="54.41" x2="31.74" y2="52.06"/><line class="cls-6" x1="20.99" y1="49.77" x2="30.61" y2="47.43"/></g></g></svg>