<svg xmlns="http://www.w3.org/2000/svg" viewBox="0 0 108 108"><defs><style>.cls-1{fill:#c8ccd3;}.cls-2{fill:#c3162d;}.cls-3,.cls-4,.cls-5{fill:none;}.cls-3,.cls-4{stroke:#fff;stroke-miterlimit:10;}.cls-4{stroke-width:0.9px;}</style></defs><title>jfk_Library</title><g id="Activated"><circle class="cls-1" cx="53.64" cy="53.52" r="48.06"/><polygon class="cls-2" points="82.18 28.27 81.36 27.8 74.92 27.8 74.02 28.27 74.1 92.21 74.92 92.61 80.95 92.61 82.18 92.21 82.18 28.27"/><path class="cls-2" d="M64.4,92.05s2.77,1.67,9.7.16L74,38.27s-2.69-.87-9.62,0Z"/><polygon class="cls-2" points="64.4 28.12 63.58 27.8 57.3 27.8 56.41 28.12 56.41 92.21 57.14 92.61 63.42 92.61 64.4 92.05 64.4 28.12"/><path class="cls-2" d="M48.4,92.39a11.26,11.26,0,0,0,8,0V28.47a16.58,16.58,0,0,0-8,0Z"/><path class="cls-2" d="M48.31,25.65a27.92,27.92,0,0,0-10.13,0L38,92.46s3.75,1.8,10.31.1Z"/><path class="cls-2" d="M24.9,33.11s8.21-1.07,13.23,0V92.46s-10.67,1.42-13.23,0Z"/><line class="cls-3" x1="74.03" y1="35.61" x2="82.18" y2="35.61"/><line class="cls-3" x1="74.03" y1="88.16" x2="82.17" y2="88.16"/><line class="cls-3" x1="74.03" y1="83.01" x2="82.18" y2="83.01"/><rect class="cls-3" x="58.21" y="31.04" width="4.67" height="57.76"/><line class="cls-3" x1="24.9" y1="40.8" x2="37.83" y2="40.8"/><line class="cls-3" x1="25.07" y1="83.33" x2="38" y2="83.33"/><line class="cls-3" x1="24.91" y1="76.64" x2="37.84" y2="76.64"/><rect class="cls-4" x="40.1" y="27.93" width="5.71" height="63.13"/><line class="cls-3" x1="64.44" y1="86.25" x2="73.98" y2="86.25"/><line class="cls-3" x1="64.4" y1="44.74" x2="74.02" y2="44.74"/><line class="cls-3" x1="64.4" y1="41.15" x2="74.02" y2="41.15"/><line class="cls-3" x1="48.32" y1="35.09" x2="56.46" y2="35.09"/><line class="cls-3" x1="48.31" y1="87.64" x2="56.46" y2="87.64"/><line class="cls-3" x1="48.32" y1="82.49" x2="56.46" y2="82.49"/><circle class="cls-5" cx="53.64" cy="53.52" r="48.06"/></g></svg>