<svg xmlns="http://www.w3.org/2000/svg" viewBox="0 0 108 108"><defs><style>.cls-1{fill:#c8ccd3;}.cls-2{fill:#c3162d;}.cls-3{fill:#fff;}.cls-4{fill:none;stroke:#fff;stroke-miterlimit:10;stroke-width:0.09px;}</style></defs><title>school_House</title><g id="Activated"><circle class="cls-1" cx="54.22" cy="54.5" r="48.06"/><path class="cls-2" d="M46.66,47.2l-1,23.67s-9.75.6-14.22-.68-11.28-1.28-11.28-1.28-3-.12-2.47-2.59L28.4,47s.68-1.45,3.27-1.36S39.68,47.63,46.66,47.2Z"/><path class="cls-2" d="M49.29,68.05s3.45-6.92,3.85-10c0,0,3.11-16,6.18-19.87l35.19,2.26s1.29.16,1.29-1.91L77.9,27.66a11,11,0,0,0-3-.43l-17.8-1.11-1-1.7s-1.14-.4-1.38.36S50.43,34.39,50.47,37s-1.32,7.74-2.32,8.67l-.48,21.46A1.28,1.28,0,0,0,49.29,68.05Z"/><path class="cls-3" d="M62.69,35.91s0,.77.47.72.1-.74.1-.74l-5.68-9.77-.46,0Z"/><path class="cls-4" d="M59.32,38.13S61.2,34,60.94,32.91l-3.82-6.79"/><path class="cls-2" d="M46.48,51.31s1.46-.48,1.05-1.43c0,0,.22-.81-1-.56Z"/><path class="cls-2" d="M46.31,55.36a1.26,1.26,0,0,0,1.61.24l-.17,7.67a3,3,0,0,0-1.84,1.22Z"/><path class="cls-3" d="M47.08,57.64c.05-.16.28-.26.8-.12l0,.8s-.43-.26-.6-.34S47,57.8,47.08,57.64Z"/><path class="cls-3" d="M46.22,57.4a.3.3,0,0,1,.36.33.33.33,0,0,1-.39.34Z"/><path class="cls-3" d="M46.19,59.14s.72.37,1.05-.06-.18-.83-.18-.83a.26.26,0,0,0-.4.23.35.35,0,0,1-.49,0Z"/><path class="cls-3" d="M47.8,60.94s-.87-.12-.88.4a.78.78,0,0,0,.43.71s.15.37.42.16Z"/><path class="cls-3" d="M46,61.88s.44-.22.68.07c0,0,.48,0,.35.37s-1,.28-1,.28Z"/><path class="cls-3" d="M46.1,60.14s.81-.5,1.26-.07-.11.68-.44.54c0,0-.53.9-.87.64Z"/><path class="cls-2" d="M45.85,66s1-.18.88,1.26-1,1.3-1,1.3Z"/><path class="cls-2" d="M35.12,90s-2-.4-1.28,1.09,1.48.6,1.48.6a2.17,2.17,0,0,0,2,1.26c1.39-.11,1.56-.61,1.56-.61s2.63.23,2.19-2.39c0,0,3.08-5.59,8.76-5.7s5.55,1.42,11.88,5.42c0,0-.51,2.5,2.53,2.3,0,0,2.54,1.52,3.45-.65,0,0,1.9.92,1.56-1.49,0,0-13.56-2.77-13.19-15.62,0,0-1.8-20,21.16-25.19a1.57,1.57,0,0,0,1.7-1.41c.25-1.54,3.54-4.24,5.15-4.73l3.3-2.92-2.6-.17s0,1.72-3.37,2.93a6.39,6.39,0,0,0-4.09,4.17l-21.86.53-.56,2.1,15.54-.2s-6.75,2.45-10.37,7.05S54.31,65,54,67.06a.55.55,0,0,1-.89,0S53.29,56,54.6,50.61l-1.79,8.14-3.71,9.3.36-.16s1.79,5.62-1.61,7-3.7-2.42-2.76-4L38,71s.44,3.24,2,3.75,2.25,5.88,2.25,5.88.61,4.24-1.61,5.74A9.46,9.46,0,0,1,35.12,90Z"/></g></svg>